<?xml version="1.0" encoding="UTF-8" standalone="no"?>
<!DOCTYPE svg PUBLIC "-//W3C//DTD SVG 1.1//EN" "http://www.w3.org/Graphics/SVG/1.1/DTD/svg11.dtd">
<svg version="1.1" xmlns="http://www.w3.org/2000/svg" xmlns:xlink="http://www.w3.org/1999/xlink" preserveAspectRatio="xMidYMid meet" viewBox="0 0 640 640" width="640" height="640"><defs><path d="M368.34 230.93L485.96 247.45L400.85 327.58L420.94 440.74L315.74 387.31L210.55 440.74L230.64 327.58L145.53 247.45L263.15 230.93L315.74 127.98L368.34 230.93Z" id="b1Uj9ST9FY"></path><path d="M252.45 282.42C252.45 340.72 280.79 387.98 315.74 387.98C350.7 387.98 379.04 340.72 379.04 282.42C379.04 224.13 350.7 176.87 315.74 87.98C280.79 176.87 252.45 224.13 252.45 282.42Z" id="ervjLU6Qk"></path><path d="M284.36 318.91C284.36 355.29 298.41 384.79 315.74 384.79C333.08 384.79 347.13 355.29 347.13 318.91C347.13 282.52 333.08 253.03 315.74 197.55C298.41 253.03 284.36 282.52 284.36 318.91Z" id="adUkQdSdp"></path></defs><g><g><g><use xlink:href="#b1Uj9ST9FY" opacity="1" fill="#fccb2e" fill-opacity="1"></use><g><use xlink:href="#b1Uj9ST9FY" opacity="1" fill-opacity="0" stroke="#050505" stroke-width="2" stroke-opacity="1"></use></g></g><g><use xlink:href="#ervjLU6Qk" opacity="1" fill="#366ccb" fill-opacity="1"></use><g><use xlink:href="#ervjLU6Qk" opacity="1" fill-opacity="0" stroke="#050505" stroke-width="1" stroke-opacity="1"></use></g></g><g><use xlink:href="#adUkQdSdp" opacity="1" fill="#73ace3" fill-opacity="1"></use></g></g></g></svg>